<?xml version="1.0" encoding="UTF-8" standalone="no"?>
<svg
   height="260"
   width="260"
   viewBox="0 0 8320 8320"
   version="1.1"
   id="svg1"
   sodipodi:docname="icon.svg"
   xml:space="preserve"
   inkscape:version="1.3 (0e150ed6c4, 2023-07-21)"
   xmlns:inkscape="http://www.inkscape.org/namespaces/inkscape"
   xmlns:sodipodi="http://sodipodi.sourceforge.net/DTD/sodipodi-0.dtd"
   xmlns="http://www.w3.org/2000/svg"
   xmlns:svg="http://www.w3.org/2000/svg"><defs
     id="defs1" /><sodipodi:namedview
     id="namedview1"
     pagecolor="#ffffff"
     bordercolor="#000000"
     borderopacity="0.25"
     inkscape:showpageshadow="2"
     inkscape:pageopacity="0.0"
     inkscape:pagecheckerboard="0"
     inkscape:deskcolor="#d1d1d1"
     inkscape:zoom="2.2262815"
     inkscape:cx="146.20792"
     inkscape:cy="130.26205"
     inkscape:window-width="1920"
     inkscape:window-height="1002"
     inkscape:window-x="-8"
     inkscape:window-y="-8"
     inkscape:window-maximized="1"
     inkscape:current-layer="svg1" /><rect
     style="fill:#4eff35;fill-opacity:1;stroke:none;stroke-width:462.863"
     id="rect3"
     width="2039.8118"
     height="1644.713"
     x="1836.1173"
     y="4949.0557" /><rect
     style="fill:#fff235;fill-opacity:1;stroke:none;stroke-width:462.863"
     id="rect2"
     width="2260.3318"
     height="1810.1031"
     x="1574.5696"
     y="3013.136" /><rect
     style="fill:#ff5735;fill-opacity:1;stroke:none;stroke-width:462.863"
     id="rect1"
     width="2352.2153"
     height="1874.4215"
     x="1420.4613"
     y="1131.8912" /><!--!Font Awesome Free 6.5.1 by @fontawesome - https://fontawesome.com License - https://fontawesome.com/license/free Copyright 2024 Fonticons, Inc.--><path
     opacity="1"
     fill="#1E3050"
     d="M 1437.7253,448 C 927.12995,448 512,863.12995 512,1373.7253 v 4165.764 c 0,1278.6582 1035.6552,2314.3134 2314.3133,2314.3134 1278.6582,0 2314.3134,-1035.6552 2314.3134,-2314.3134 V 1373.7253 C 5140.6267,863.12995 4725.4967,448 4214.9013,448 Z m 1388.588,6017.2147 a 694.294,694.294 0 1 1 0,-1388.588 694.294,694.294 0 1 1 0,1388.588 z M 3520.6073,3919.47 a 694.294,694.294 0 1 1 -1388.588,0 694.294,694.294 0 1 1 1388.588,0 z m -694.294,-1157.1567 a 694.294,694.294 0 1 1 0,-1388.588 694.294,694.294 0 1 1 0,1388.588 z"
     id="path1"
     style="fill:#000000;fill-opacity:1;stroke-width:14.4645" /><path
     opacity="1"
     fill="#1e3050"
     d="M 6862.5358,4028.508 7559.8369,3250.6332 6460.4205,2070.6429 v 1553.4907 l -648.3546,-648.3546 -236.4498,236.4499 814.02,816.2791 -814.02,816.2791 236.4498,236.4499 648.3546,-648.3546 20.3316,1493.2486 1118.9952,-1118.9952 -737.2115,-777.8748 z m 307.9872,-775.6158 -376.5125,376.5125 -2.259,-755.284 z m -376.5125,1174.719 376.5125,376.5125 -378.7715,378.7716 z"
     id="path1-6"
     style="stroke-width:7.53027" /></svg>
