<?xml version="1.0" standalone="no"?>
<!DOCTYPE svg PUBLIC "-//W3C//DTD SVG 20010904//EN"
 "http://www.w3.org/TR/2001/REC-SVG-20010904/DTD/svg10.dtd">
<svg version="1.0" xmlns="http://www.w3.org/2000/svg"
 width="700.000000pt" height="700.000000pt" viewBox="0 0 700.000000 700.000000"
 preserveAspectRatio="xMidYMid meet">
<metadata>
Created by potrace 1.14, written by Peter Selinger 2001-2017
</metadata>
<g transform="translate(0.000000,700.000000) scale(0.100000,-0.100000)"
fill="#000000" stroke="none">
<path d="M1207 6624 c-1 -1 -31 -4 -67 -7 -286 -23 -540 -209 -650 -477 -63
-154 -61 -49 -59 -2095 1 -1877 1 -1865 33 -2070 20 -122 86 -322 155 -470 40
-84 145 -263 180 -308 187 -232 331 -369 511 -486 211 -137 495 -251 710 -285
19 -3 46 -8 60 -11 93 -19 377 -26 505 -11 456 51 862 247 1176 568 187 190
322 396 429 653 57 138 112 373 127 550 9 99 8 3719 0 3783 -14 107 -72 248
-139 339 -131 179 -313 288 -533 320 -32 4 -2432 11 -2438 7z"/>
<path d="M5439 5245 c-1 -5 -2 -294 -3 -642 0 -347 -3 -634 -6 -637 -3 -3 -79
68 -167 157 -89 89 -209 209 -267 267 l-106 105 -99 -99 -100 -100 337 -338
c185 -186 337 -342 337 -348 0 -5 -150 -160 -332 -343 -183 -183 -333 -338
-333 -343 0 -5 43 -52 95 -104 l95 -95 268 268 c147 147 270 267 273 267 3 0
6 -46 6 -102 3 -353 15 -1133 17 -1136 3 -2 880 871 920 916 19 21 18 22 -47
89 -35 38 -82 86 -103 109 -126 132 -356 375 -396 417 -52 53 -54 59 -35 79 7
7 68 76 137 153 69 77 141 158 162 180 20 22 45 49 55 61 29 33 144 163 180
202 l32 35 -36 41 c-20 23 -91 100 -158 171 -66 72 -146 157 -176 189 -29 32
-65 71 -79 85 -14 15 -56 61 -95 102 -38 41 -125 133 -192 205 -67 72 -136
146 -152 165 -17 19 -31 30 -32 24z m437 -1138 c-86 -86 -157 -156 -157 -154
-1 1 -2 143 -3 315 l-2 313 159 -159 159 -159 -156 -156z m3 -1303 c-85 -85
-156 -154 -159 -154 -4 0 -5 606 -1 618 0 2 71 -67 157 -153 l157 -157 -154
-154z"/>
</g>
</svg>
