<?xml version="1.0" encoding="UTF-8" standalone="no"?>
<svg
   height="231.43134"
   width="144.64458"
   viewBox="0 0 4628.6265 7405.8027"
   version="1.1"
   id="svg1"
   sodipodi:docname="status.svg"
   xml:space="preserve"
   inkscape:version="1.3 (0e150ed6c4, 2023-07-21)"
   xmlns:inkscape="http://www.inkscape.org/namespaces/inkscape"
   xmlns:sodipodi="http://sodipodi.sourceforge.net/DTD/sodipodi-0.dtd"
   xmlns="http://www.w3.org/2000/svg"
   xmlns:svg="http://www.w3.org/2000/svg"><defs
     id="defs1" /><sodipodi:namedview
     id="namedview1"
     pagecolor="#ffffff"
     bordercolor="#000000"
     borderopacity="0.25"
     inkscape:showpageshadow="2"
     inkscape:pageopacity="0.0"
     inkscape:pagecheckerboard="0"
     inkscape:deskcolor="#d1d1d1"
     inkscape:zoom="2.2262815"
     inkscape:cx="130.03746"
     inkscape:cy="116.1129"
     inkscape:window-width="3840"
     inkscape:window-height="2066"
     inkscape:window-x="-11"
     inkscape:window-y="-11"
     inkscape:window-maximized="1"
     inkscape:current-layer="svg1" /><rect
     id="rect3"
     class="rect3"
     width="2039.8118"
     height="1644.713"
     x="1324.1173"
     y="4501.0557" /><rect
     id="rect2"
     class="rect2"
     width="2260.3318"
     height="1810.1031"
     x="1062.5696"
     y="2565.136" /><rect
     id="rect1"
     width="2352.2153"
     height="1874.4215"
     x="908.4613"
     y="683.89124" class="rect1" /><!--!Font Awesome Free 6.5.1 by @fontawesome - https://fontawesome.com License - https://fontawesome.com/license/free Copyright 2024 Fonticons, Inc.--><path
     opacity="1"
     fill="#1E3050"
     d="M 925.7253,0 C 415.12995,0 -9.4520487e-8,415.12995 -9.4520487e-8,925.7253 v 4165.764 C -9.4520487e-8,6370.1475 1035.6552,7405.8027 2314.3133,7405.8027 c 1278.6582,0 2314.3134,-1035.6552 2314.3134,-2314.3134 V 925.7253 C 4628.6267,415.12995 4213.4967,0 3702.9013,0 Z m 1388.588,6017.2147 a 694.294,694.294 0 1 1 0,-1388.588 694.294,694.294 0 1 1 0,1388.588 z M 3008.6073,3471.47 a 694.294,694.294 0 1 1 -1388.588,0 694.294,694.294 0 1 1 1388.588,0 z m -694.294,-1157.1567 a 694.294,694.294 0 1 1 0,-1388.588 694.294,694.294 0 1 1 0,1388.588 z"
     id="path1"
     style="fill:#313131;fill-opacity:1;stroke-width:14.4645" /></svg>
